<svg xmlns="http://www.w3.org/2000/svg" xmlns:xlink="http://www.w3.org/1999/xlink" width="1080" zoomAndPan="magnify" viewBox="0 0 810 809.999993" height="1080" preserveAspectRatio="xMidYMid meet" version="1.0"><defs><g/></defs><rect x="-81" width="972" fill="#ffffff" y="-80.999999" height="971.999992" fill-opacity="1"/><rect x="-81" width="972" fill="#000000" y="-80.999999" height="971.999992" fill-opacity="1"/><g fill="#d9d9d9" fill-opacity="1"><g transform="translate(19.31468, 275.403269)"><g><path d="M 99.554688 0 L 99.554688 -166.996094 L 151.519531 -166.996094 L 151.519531 -208.453125 L 5.839844 -208.453125 L 5.839844 -166.996094 L 57.804688 -166.996094 L 57.804688 0 Z M 99.554688 0 "/></g></g></g><g fill="#d9d9d9" fill-opacity="1"><g transform="translate(179.010238, 275.403269)"><g><path d="M 74.445312 0 L 115.902344 0 L 115.902344 -94.007812 L 188.890625 -208.742188 L 137.800781 -208.742188 L 95.175781 -136.925781 L 52.550781 -208.742188 L 1.75 -208.742188 L 74.445312 -94.007812 Z M 74.445312 0 "/></g></g></g><g fill="#d9d9d9" fill-opacity="1"><g transform="translate(368.484539, 275.403269)"><g><path d="M 13.722656 -13.429688 C 42.039062 1.167969 68.023438 2.628906 79.703125 1.75 C 118.824219 -0.292969 142.761719 -26.859375 142.761719 -61.601562 C 142.761719 -94.882812 114.734375 -113.566406 82.328125 -125.539062 C 70.359375 -129.625 60.140625 -134.878906 58.972656 -146.558594 C 58.097656 -158.234375 64.8125 -169.039062 79.703125 -169.914062 C 86.125 -170.207031 99.261719 -170.496094 122.328125 -161.15625 L 127.582031 -201.445312 C 100.722656 -210.785156 86.417969 -210.785156 75.613281 -210.203125 C 40.871094 -208.453125 16.640625 -181.59375 16.640625 -146.558594 C 16.640625 -111.523438 45.835938 -94.882812 78.535156 -82.914062 C 90.210938 -78.824219 99.261719 -73.570312 100.136719 -61.601562 C 101.304688 -50.214844 90.796875 -41.457031 78.535156 -40.582031 C 68.898438 -39.703125 42.917969 -40.289062 18.976562 -57.222656 Z M 13.722656 -13.429688 "/></g></g></g><g fill="#d9d9d9" fill-opacity="1"><g transform="translate(522.925042, 275.403269)"><g><path d="M 169.332031 0 L 169.332031 -208.742188 L 127.582031 -208.742188 L 127.582031 -125.246094 L 65.105469 -125.246094 L 65.105469 -208.742188 L 23.355469 -208.742188 L 23.355469 0 L 65.105469 0 L 65.105469 -83.496094 L 127.582031 -83.496094 L 127.582031 0 Z M 169.332031 0 "/></g></g></g><g fill="#d9d9d9" fill-opacity="1"><g transform="translate(715.902678, 275.403269)"><g><path d="M 32.113281 -44.960938 C 0.582031 -44.960938 0.582031 2.042969 32.113281 2.042969 C 63.351562 2.042969 64.230469 -44.960938 32.113281 -44.960938 Z M 32.113281 -44.960938 "/></g></g></g><g fill="#d9d9d9" fill-opacity="1"><g transform="translate(133.886886, 683.248685)"><g><path d="M 85.539062 -208.742188 L 23.355469 -208.742188 L 23.355469 0 L 85.539062 0 C 224.507812 0 224.507812 -208.742188 85.539062 -208.742188 Z M 85.539062 -166.996094 C 166.703125 -166.996094 166.703125 -41.75 85.539062 -41.75 L 65.105469 -41.75 L 65.105469 -166.996094 Z M 85.539062 -166.996094 "/></g></g></g><g fill="#d9d9d9" fill-opacity="1"><g transform="translate(339.418319, 683.248685)"><g><path d="M 131.375 0 L 131.375 -41.75 L 65.105469 -41.75 L 65.105469 -83.496094 L 119.992188 -83.496094 L 119.992188 -125.246094 L 65.105469 -125.246094 L 65.105469 -166.996094 L 127.875 -166.996094 L 127.875 -208.742188 L 23.355469 -208.742188 L 23.355469 0 Z M 131.375 0 "/></g></g></g><g fill="#d9d9d9" fill-opacity="1"><g transform="translate(486.560171, 683.248685)"><g><path d="M 88.167969 4.378906 L 97.511719 4.378906 L 183.925781 -208.742188 L 135.757812 -208.742188 L 107.730469 -137.800781 L 92.839844 -96.050781 L 77.660156 -139.257812 L 49.921875 -208.742188 L 1.75 -208.742188 Z M 88.167969 4.378906 "/></g></g></g></svg>